solid JSxCAD
facet normal 0.9858708546843854 -0.16750718755886093 0
outer loop
vertex 8.94341 -1.00768 0
vertex 8.94341 -1.00768 10
vertex 8.77435 -2.00269 0
endloop
endfacet
facet normal 0.9858708546843854 -0.16750718755886093 0
outer loop
vertex 8.77435 -2.00269 0
vertex 8.94341 -1.00768 10
vertex 8.77435 -2.00269 10
endloop
endfacet
facet normal 0.960917408605194 -0.27683521062082844 0
outer loop
vertex 8.77435 -2.00269 0
vertex 8.77435 -2.00269 10
vertex 8.49495 -2.97251 0
endloop
endfacet
facet normal 0.960917408605194 -0.27683521062082844 0
outer loop
vertex 8.49495 -2.97251 0
vertex 8.77435 -2.00269 10
vertex 8.49495 -2.97251 10
endloop
endfacet
facet normal 0.9238792852287926 -0.382684029357295 0
outer loop
vertex 8.49495 -2.97251 0
vertex 8.49495 -2.97251 10
vertex 8.10872 -3.90495 0
endloop
endfacet
facet normal 0.9238792852287926 -0.382684029357295 0
outer loop
vertex 8.10872 -3.90495 0
vertex 8.49495 -2.97251 10
vertex 8.10872 -3.90495 10
endloop
endfacet
facet normal 0.8752254191181082 -0.4837152734094011 0
outer loop
vertex 8.10872 -3.90495 0
vertex 8.10872 -3.90495 10
vertex 7.62052 -4.78829 0
endloop
endfacet
facet normal 0.8752254191181082 -0.4837152734094011 0
outer loop
vertex 7.62052 -4.78829 0
vertex 8.10872 -3.90495 10
vertex 7.62052 -4.78829 10
endloop
endfacet
facet normal 0.8155584307036788 -0.5786747325641174 0
outer loop
vertex 7.62052 -4.78829 0
vertex 7.62052 -4.78829 10
vertex 7.03648 -5.61141 0
endloop
endfacet
facet normal 0.8155584307036788 -0.5786747325641174 0
outer loop
vertex 7.03648 -5.61141 0
vertex 7.62052 -4.78829 10
vertex 7.03648 -5.61141 10
endloop
endfacet
facet normal 0.7456420648652895 -0.666346689872042 0
outer loop
vertex 7.03648 -5.61141 0
vertex 7.03648 -5.61141 10
vertex 6.36396 -6.36396 0
endloop
endfacet
facet normal 0.7456420648652895 -0.666346689872042 0
outer loop
vertex 6.36396 -6.36396 0
vertex 7.03648 -5.61141 10
vertex 6.36396 -6.36396 10
endloop
endfacet
facet normal 0.666346689872042 -0.7456420648652895 0
outer loop
vertex 6.36396 -6.36396 0
vertex 6.36396 -6.36396 10
vertex 5.61141 -7.03648 0
endloop
endfacet
facet normal 0.666346689872042 -0.7456420648652895 0
outer loop
vertex 5.61141 -7.03648 0
vertex 6.36396 -6.36396 10
vertex 5.61141 -7.03648 10
endloop
endfacet
facet normal 0.5786747325641174 -0.8155584307036788 0
outer loop
vertex 5.61141 -7.03648 0
vertex 5.61141 -7.03648 10
vertex 4.78829 -7.62052 0
endloop
endfacet
facet normal 0.5786747325641174 -0.8155584307036788 0
outer loop
vertex 4.78829 -7.62052 0
vertex 5.61141 -7.03648 10
vertex 4.78829 -7.62052 10
endloop
endfacet
facet normal 0.4837152734094011 -0.8752254191181082 0
outer loop
vertex 4.78829 -7.62052 0
vertex 4.78829 -7.62052 10
vertex 3.90495 -8.10872 0
endloop
endfacet
facet normal 0.4837152734094011 -0.8752254191181082 0
outer loop
vertex 3.90495 -8.10872 0
vertex 4.78829 -7.62052 10
vertex 3.90495 -8.10872 10
endloop
endfacet
facet normal 0.382684029357295 -0.9238792852287926 0
outer loop
vertex 3.90495 -8.10872 0
vertex 3.90495 -8.10872 10
vertex 2.97251 -8.49495 0
endloop
endfacet
facet normal 0.382684029357295 -0.9238792852287926 0
outer loop
vertex 2.97251 -8.49495 0
vertex 3.90495 -8.10872 10
vertex 2.97251 -8.49495 10
endloop
endfacet
facet normal 0.27683521062082844 -0.960917408605194 0
outer loop
vertex 2.97251 -8.49495 0
vertex 2.97251 -8.49495 10
vertex 2.00269 -8.77435 0
endloop
endfacet
facet normal 0.27683521062082844 -0.960917408605194 0
outer loop
vertex 2.00269 -8.77435 0
vertex 2.97251 -8.49495 10
vertex 2.00269 -8.77435 10
endloop
endfacet
facet normal 0.16750718755886093 -0.9858708546843854 0
outer loop
vertex 2.00269 -8.77435 0
vertex 2.00269 -8.77435 10
vertex 1.00768 -8.94341 0
endloop
endfacet
facet normal 0.16750718755886093 -0.9858708546843854 0
outer loop
vertex 1.00768 -8.94341 0
vertex 2.00269 -8.77435 10
vertex 1.00768 -8.94341 10
endloop
endfacet
facet normal 0.05607035344546927 -0.9984268202850424 0
outer loop
vertex 1.00768 -8.94341 0
vertex 1.00768 -8.94341 10
vertex 0 -9 0
endloop
endfacet
facet normal 0.05607035344546927 -0.9984268202850424 0
outer loop
vertex 0 -9 0
vertex 1.00768 -8.94341 10
vertex 0 -9 10
endloop
endfacet
facet normal -0.05607035344546927 -0.9984268202850424 0
outer loop
vertex 0 -9 0
vertex 0 -9 10
vertex -1.00768 -8.94341 0
endloop
endfacet
facet normal -0.05607035344546927 -0.9984268202850424 0
outer loop
vertex -1.00768 -8.94341 0
vertex 0 -9 10
vertex -1.00768 -8.94341 10
endloop
endfacet
facet normal -0.16750718755886093 -0.9858708546843854 0
outer loop
vertex -1.00768 -8.94341 0
vertex -1.00768 -8.94341 10
vertex -2.00269 -8.77435 0
endloop
endfacet
facet normal -0.16750718755886093 -0.9858708546843854 0
outer loop
vertex -2.00269 -8.77435 0
vertex -1.00768 -8.94341 10
vertex -2.00269 -8.77435 10
endloop
endfacet
facet normal -0.27683521062082844 -0.960917408605194 0
outer loop
vertex -2.00269 -8.77435 0
vertex -2.00269 -8.77435 10
vertex -2.97251 -8.49495 0
endloop
endfacet
facet normal -0.27683521062082844 -0.960917408605194 0
outer loop
vertex -2.97251 -8.49495 0
vertex -2.00269 -8.77435 10
vertex -2.97251 -8.49495 10
endloop
endfacet
facet normal -0.382684029357295 -0.9238792852287926 0
outer loop
vertex -2.97251 -8.49495 0
vertex -2.97251 -8.49495 10
vertex -3.90495 -8.10872 0
endloop
endfacet
facet normal -0.382684029357295 -0.9238792852287926 0
outer loop
vertex -3.90495 -8.10872 0
vertex -2.97251 -8.49495 10
vertex -3.90495 -8.10872 10
endloop
endfacet
facet normal -0.4837152734094011 -0.8752254191181082 0
outer loop
vertex -3.90495 -8.10872 0
vertex -3.90495 -8.10872 10
vertex -4.78829 -7.62052 0
endloop
endfacet
facet normal -0.4837152734094011 -0.8752254191181082 0
outer loop
vertex -4.78829 -7.62052 0
vertex -3.90495 -8.10872 10
vertex -4.78829 -7.62052 10
endloop
endfacet
facet normal -0.5786747325641174 -0.8155584307036788 0
outer loop
vertex -4.78829 -7.62052 0
vertex -4.78829 -7.62052 10
vertex -5.61141 -7.03648 0
endloop
endfacet
facet normal -0.5786747325641174 -0.8155584307036788 0
outer loop
vertex -5.61141 -7.03648 0
vertex -4.78829 -7.62052 10
vertex -5.61141 -7.03648 10
endloop
endfacet
facet normal -0.666346689872042 -0.7456420648652895 0
outer loop
vertex -5.61141 -7.03648 0
vertex -5.61141 -7.03648 10
vertex -6.36396 -6.36396 0
endloop
endfacet
facet normal -0.666346689872042 -0.7456420648652895 0
outer loop
vertex -6.36396 -6.36396 0
vertex -5.61141 -7.03648 10
vertex -6.36396 -6.36396 10
endloop
endfacet
facet normal -0.7456420648652895 -0.666346689872042 0
outer loop
vertex -6.36396 -6.36396 0
vertex -6.36396 -6.36396 10
vertex -7.03648 -5.61141 0
endloop
endfacet
facet normal -0.7456420648652895 -0.666346689872042 0
outer loop
vertex -7.03648 -5.61141 0
vertex -6.36396 -6.36396 10
vertex -7.03648 -5.61141 10
endloop
endfacet
facet normal -0.8155584307036788 -0.5786747325641174 0
outer loop
vertex -7.03648 -5.61141 0
vertex -7.03648 -5.61141 10
vertex -7.62052 -4.78829 0
endloop
endfacet
facet normal -0.8155584307036788 -0.5786747325641174 0
outer loop
vertex -7.62052 -4.78829 0
vertex -7.03648 -5.61141 10
vertex -7.62052 -4.78829 10
endloop
endfacet
facet normal -0.8752254191181082 -0.4837152734094011 0
outer loop
vertex -7.62052 -4.78829 0
vertex -7.62052 -4.78829 10
vertex -8.10872 -3.90495 0
endloop
endfacet
facet normal -0.8752254191181082 -0.4837152734094011 0
outer loop
vertex -8.10872 -3.90495 0
vertex -7.62052 -4.78829 10
vertex -8.10872 -3.90495 10
endloop
endfacet
facet normal -0.9238792852287926 -0.382684029357295 0
outer loop
vertex -8.10872 -3.90495 0
vertex -8.10872 -3.90495 10
vertex -8.49495 -2.97251 0
endloop
endfacet
facet normal -0.9238792852287926 -0.382684029357295 0
outer loop
vertex -8.49495 -2.97251 0
vertex -8.10872 -3.90495 10
vertex -8.49495 -2.97251 10
endloop
endfacet
facet normal -0.960917408605194 -0.27683521062082844 0
outer loop
vertex -8.49495 -2.97251 0
vertex -8.49495 -2.97251 10
vertex -8.77435 -2.00269 0
endloop
endfacet
facet normal -0.960917408605194 -0.27683521062082844 0
outer loop
vertex -8.77435 -2.00269 0
vertex -8.49495 -2.97251 10
vertex -8.77435 -2.00269 10
endloop
endfacet
facet normal -0.9858708546843854 -0.16750718755886093 0
outer loop
vertex -8.77435 -2.00269 0
vertex -8.77435 -2.00269 10
vertex -8.94341 -1.00768 0
endloop
endfacet
facet normal -0.9858708546843854 -0.16750718755886093 0
outer loop
vertex -8.94341 -1.00768 0
vertex -8.77435 -2.00269 10
vertex -8.94341 -1.00768 10
endloop
endfacet
facet normal -0.9984268202850424 -0.05607035344546927 0
outer loop
vertex -8.94341 -1.00768 0
vertex -8.94341 -1.00768 10
vertex -9 0 0
endloop
endfacet
facet normal -0.9984268202850424 -0.05607035344546927 0
outer loop
vertex -9 0 0
vertex -8.94341 -1.00768 10
vertex -9 0 10
endloop
endfacet
facet normal -0.9984268202850424 0.05607035344546927 0
outer loop
vertex -9 0 0
vertex -9 0 10
vertex -8.94341 1.00768 0
endloop
endfacet
facet normal -0.9984268202850424 0.05607035344546927 0
outer loop
vertex -8.94341 1.00768 0
vertex -9 0 10
vertex -8.94341 1.00768 10
endloop
endfacet
facet normal -0.9858708546843854 0.16750718755886093 0
outer loop
vertex -8.94341 1.00768 0
vertex -8.94341 1.00768 10
vertex -8.77435 2.00269 0
endloop
endfacet
facet normal -0.9858708546843854 0.16750718755886093 0
outer loop
vertex -8.77435 2.00269 0
vertex -8.94341 1.00768 10
vertex -8.77435 2.00269 10
endloop
endfacet
facet normal -0.960917408605194 0.27683521062082844 0
outer loop
vertex -8.77435 2.00269 0
vertex -8.77435 2.00269 10
vertex -8.49495 2.97251 0
endloop
endfacet
facet normal -0.960917408605194 0.27683521062082844 0
outer loop
vertex -8.49495 2.97251 0
vertex -8.77435 2.00269 10
vertex -8.49495 2.97251 10
endloop
endfacet
facet normal -0.9238792852287926 0.382684029357295 0
outer loop
vertex -8.49495 2.97251 0
vertex -8.49495 2.97251 10
vertex -8.10872 3.90495 0
endloop
endfacet
facet normal -0.9238792852287926 0.382684029357295 0
outer loop
vertex -8.10872 3.90495 0
vertex -8.49495 2.97251 10
vertex -8.10872 3.90495 10
endloop
endfacet
facet normal -0.8752254191181082 0.4837152734094011 0
outer loop
vertex -8.10872 3.90495 0
vertex -8.10872 3.90495 10
vertex -7.62052 4.78829 0
endloop
endfacet
facet normal -0.8752254191181082 0.4837152734094011 0
outer loop
vertex -7.62052 4.78829 0
vertex -8.10872 3.90495 10
vertex -7.62052 4.78829 10
endloop
endfacet
facet normal -0.8155584307036788 0.5786747325641174 0
outer loop
vertex -7.62052 4.78829 0
vertex -7.62052 4.78829 10
vertex -7.03648 5.61141 0
endloop
endfacet
facet normal -0.8155584307036788 0.5786747325641174 0
outer loop
vertex -7.03648 5.61141 0
vertex -7.62052 4.78829 10
vertex -7.03648 5.61141 10
endloop
endfacet
facet normal -0.7456420648652895 0.666346689872042 0
outer loop
vertex -7.03648 5.61141 0
vertex -7.03648 5.61141 10
vertex -6.36396 6.36396 0
endloop
endfacet
facet normal -0.7456420648652895 0.666346689872042 0
outer loop
vertex -6.36396 6.36396 0
vertex -7.03648 5.61141 10
vertex -6.36396 6.36396 10
endloop
endfacet
facet normal -0.666346689872042 0.7456420648652895 0
outer loop
vertex -6.36396 6.36396 0
vertex -6.36396 6.36396 10
vertex -5.61141 7.03648 0
endloop
endfacet
facet normal -0.666346689872042 0.7456420648652895 0
outer loop
vertex -5.61141 7.03648 0
vertex -6.36396 6.36396 10
vertex -5.61141 7.03648 10
endloop
endfacet
facet normal -0.5786747325641174 0.8155584307036788 0
outer loop
vertex -5.61141 7.03648 0
vertex -5.61141 7.03648 10
vertex -4.78829 7.62052 0
endloop
endfacet
facet normal -0.5786747325641174 0.8155584307036788 0
outer loop
vertex -4.78829 7.62052 0
vertex -5.61141 7.03648 10
vertex -4.78829 7.62052 10
endloop
endfacet
facet normal -0.4837152734094011 0.8752254191181082 0
outer loop
vertex -4.78829 7.62052 0
vertex -4.78829 7.62052 10
vertex -3.90495 8.10872 0
endloop
endfacet
facet normal -0.4837152734094011 0.8752254191181082 0
outer loop
vertex -3.90495 8.10872 0
vertex -4.78829 7.62052 10
vertex -3.90495 8.10872 10
endloop
endfacet
facet normal -0.382684029357295 0.9238792852287926 0
outer loop
vertex -3.90495 8.10872 0
vertex -3.90495 8.10872 10
vertex -2.97251 8.49495 0
endloop
endfacet
facet normal -0.382684029357295 0.9238792852287926 0
outer loop
vertex -2.97251 8.49495 0
vertex -3.90495 8.10872 10
vertex -2.97251 8.49495 10
endloop
endfacet
facet normal -0.27683521062082844 0.960917408605194 0
outer loop
vertex -2.97251 8.49495 0
vertex -2.97251 8.49495 10
vertex -2.00269 8.77435 0
endloop
endfacet
facet normal -0.27683521062082844 0.960917408605194 0
outer loop
vertex -2.00269 8.77435 0
vertex -2.97251 8.49495 10
vertex -2.00269 8.77435 10
endloop
endfacet
facet normal -0.16750718755886093 0.9858708546843854 0
outer loop
vertex -2.00269 8.77435 0
vertex -2.00269 8.77435 10
vertex -1.00768 8.94341 0
endloop
endfacet
facet normal -0.16750718755886093 0.9858708546843854 0
outer loop
vertex -1.00768 8.94341 0
vertex -2.00269 8.77435 10
vertex -1.00768 8.94341 10
endloop
endfacet
facet normal -0.05607035344546927 0.9984268202850424 0
outer loop
vertex -1.00768 8.94341 0
vertex -1.00768 8.94341 10
vertex 0 9 0
endloop
endfacet
facet normal -0.05607035344546927 0.9984268202850424 0
outer loop
vertex 0 9 0
vertex -1.00768 8.94341 10
vertex 0 9 10
endloop
endfacet
facet normal 0.05607035344546927 0.9984268202850424 0
outer loop
vertex 0 9 0
vertex 0 9 10
vertex 1.00768 8.94341 0
endloop
endfacet
facet normal 0.05607035344546927 0.9984268202850424 0
outer loop
vertex 1.00768 8.94341 0
vertex 0 9 10
vertex 1.00768 8.94341 10
endloop
endfacet
facet normal 0.16750718755886093 0.9858708546843854 0
outer loop
vertex 1.00768 8.94341 0
vertex 1.00768 8.94341 10
vertex 2.00269 8.77435 0
endloop
endfacet
facet normal 0.16750718755886093 0.9858708546843854 0
outer loop
vertex 2.00269 8.77435 0
vertex 1.00768 8.94341 10
vertex 2.00269 8.77435 10
endloop
endfacet
facet normal 0.27683521062082844 0.960917408605194 0
outer loop
vertex 2.00269 8.77435 0
vertex 2.00269 8.77435 10
vertex 2.97251 8.49495 0
endloop
endfacet
facet normal 0.27683521062082844 0.960917408605194 0
outer loop
vertex 2.97251 8.49495 0
vertex 2.00269 8.77435 10
vertex 2.97251 8.49495 10
endloop
endfacet
facet normal 0.382684029357295 0.9238792852287926 0
outer loop
vertex 2.97251 8.49495 0
vertex 2.97251 8.49495 10
vertex 3.90495 8.10872 0
endloop
endfacet
facet normal 0.382684029357295 0.9238792852287926 0
outer loop
vertex 3.90495 8.10872 0
vertex 2.97251 8.49495 10
vertex 3.90495 8.10872 10
endloop
endfacet
facet normal 0.4837152734094011 0.8752254191181082 0
outer loop
vertex 3.90495 8.10872 0
vertex 3.90495 8.10872 10
vertex 4.78829 7.62052 0
endloop
endfacet
facet normal 0.4837152734094011 0.8752254191181082 0
outer loop
vertex 4.78829 7.62052 0
vertex 3.90495 8.10872 10
vertex 4.78829 7.62052 10
endloop
endfacet
facet normal 0.5786747325641174 0.8155584307036788 0
outer loop
vertex 4.78829 7.62052 0
vertex 4.78829 7.62052 10
vertex 5.61141 7.03648 0
endloop
endfacet
facet normal 0.5786747325641174 0.8155584307036788 0
outer loop
vertex 5.61141 7.03648 0
vertex 4.78829 7.62052 10
vertex 5.61141 7.03648 10
endloop
endfacet
facet normal 0.666346689872042 0.7456420648652895 0
outer loop
vertex 5.61141 7.03648 0
vertex 5.61141 7.03648 10
vertex 6.36396 6.36396 0
endloop
endfacet
facet normal 0.666346689872042 0.7456420648652895 0
outer loop
vertex 6.36396 6.36396 0
vertex 5.61141 7.03648 10
vertex 6.36396 6.36396 10
endloop
endfacet
facet normal 0.7456420648652895 0.666346689872042 0
outer loop
vertex 6.36396 6.36396 0
vertex 6.36396 6.36396 10
vertex 7.03648 5.61141 0
endloop
endfacet
facet normal 0.7456420648652895 0.666346689872042 0
outer loop
vertex 7.03648 5.61141 0
vertex 6.36396 6.36396 10
vertex 7.03648 5.61141 10
endloop
endfacet
facet normal 0.8155584307036788 0.5786747325641174 0
outer loop
vertex 7.03648 5.61141 0
vertex 7.03648 5.61141 10
vertex 7.62052 4.78829 0
endloop
endfacet
facet normal 0.8155584307036788 0.5786747325641174 0
outer loop
vertex 7.62052 4.78829 0
vertex 7.03648 5.61141 10
vertex 7.62052 4.78829 10
endloop
endfacet
facet normal 0.8752254191181082 0.4837152734094011 0
outer loop
vertex 7.62052 4.78829 0
vertex 7.62052 4.78829 10
vertex 8.10872 3.90495 0
endloop
endfacet
facet normal 0.8752254191181082 0.4837152734094011 0
outer loop
vertex 8.10872 3.90495 0
vertex 7.62052 4.78829 10
vertex 8.10872 3.90495 10
endloop
endfacet
facet normal 0.9238792852287926 0.382684029357295 0
outer loop
vertex 8.10872 3.90495 0
vertex 8.10872 3.90495 10
vertex 8.49495 2.97251 0
endloop
endfacet
facet normal 0.9238792852287926 0.382684029357295 0
outer loop
vertex 8.49495 2.97251 0
vertex 8.10872 3.90495 10
vertex 8.49495 2.97251 10
endloop
endfacet
facet normal 0.960917408605194 0.27683521062082844 0
outer loop
vertex 8.49495 2.97251 0
vertex 8.49495 2.97251 10
vertex 8.77435 2.00269 0
endloop
endfacet
facet normal 0.960917408605194 0.27683521062082844 0
outer loop
vertex 8.77435 2.00269 0
vertex 8.49495 2.97251 10
vertex 8.77435 2.00269 10
endloop
endfacet
facet normal 0.9858708546843854 0.16750718755886093 0
outer loop
vertex 8.77435 2.00269 0
vertex 8.77435 2.00269 10
vertex 8.94341 1.00768 0
endloop
endfacet
facet normal 0.9858708546843854 0.16750718755886093 0
outer loop
vertex 8.94341 1.00768 0
vertex 8.77435 2.00269 10
vertex 8.94341 1.00768 10
endloop
endfacet
facet normal 0.9984268202850424 0.05607035344546927 0
outer loop
vertex 8.94341 1.00768 0
vertex 8.94341 1.00768 10
vertex 9 0 0
endloop
endfacet
facet normal 0.9984268202850424 0.05607035344546927 0
outer loop
vertex 9 0 0
vertex 8.94341 1.00768 10
vertex 9 0 10
endloop
endfacet
facet normal 0.9984268202850424 -0.05607035344546927 0
outer loop
vertex 9 0 0
vertex 9 0 10
vertex 8.94341 -1.00768 0
endloop
endfacet
facet normal 0.9984268202850424 -0.05607035344546927 0
outer loop
vertex 8.94341 -1.00768 0
vertex 9 0 10
vertex 8.94341 -1.00768 10
endloop
endfacet
facet normal 0 0 1
outer loop
vertex 9 0 10
vertex 8.94341 1.00768 10
vertex 8.77435 2.00269 10
endloop
endfacet
facet normal 0 0 1
outer loop
vertex 9 0 10
vertex 8.77435 2.00269 10
vertex 8.49495 2.97251 10
endloop
endfacet
facet normal 0 0 1
outer loop
vertex 9 0 10
vertex 8.49495 2.97251 10
vertex 8.10872 3.90495 10
endloop
endfacet
facet normal 0 0 1
outer loop
vertex 9 0 10
vertex 8.10872 3.90495 10
vertex 7.62052 4.78829 10
endloop
endfacet
facet normal 0 0 1
outer loop
vertex 9 0 10
vertex 7.62052 4.78829 10
vertex 7.03648 5.61141 10
endloop
endfacet
facet normal 0 0 1
outer loop
vertex 9 0 10
vertex 7.03648 5.61141 10
vertex 6.36396 6.36396 10
endloop
endfacet
facet normal 0 0 1
outer loop
vertex 9 0 10
vertex 6.36396 6.36396 10
vertex 5.61141 7.03648 10
endloop
endfacet
facet normal 0 0 1
outer loop
vertex 9 0 10
vertex 5.61141 7.03648 10
vertex 4.78829 7.62052 10
endloop
endfacet
facet normal 0 0 1
outer loop
vertex 9 0 10
vertex 4.78829 7.62052 10
vertex 3.90495 8.10872 10
endloop
endfacet
facet normal 0 0 1
outer loop
vertex 9 0 10
vertex 3.90495 8.10872 10
vertex 2.97251 8.49495 10
endloop
endfacet
facet normal 0 0 1
outer loop
vertex 9 0 10
vertex 2.97251 8.49495 10
vertex 2.00269 8.77435 10
endloop
endfacet
facet normal 0 0 1
outer loop
vertex 9 0 10
vertex 2.00269 8.77435 10
vertex 1.00768 8.94341 10
endloop
endfacet
facet normal 0 0 1
outer loop
vertex 9 0 10
vertex 1.00768 8.94341 10
vertex 0 9 10
endloop
endfacet
facet normal 0 0 1
outer loop
vertex 9 0 10
vertex 0 9 10
vertex -1.00768 8.94341 10
endloop
endfacet
facet normal 0 0 1
outer loop
vertex 9 0 10
vertex -1.00768 8.94341 10
vertex -2.00269 8.77435 10
endloop
endfacet
facet normal 0 0 1
outer loop
vertex 9 0 10
vertex -2.00269 8.77435 10
vertex -2.97251 8.49495 10
endloop
endfacet
facet normal 0 0 1
outer loop
vertex 9 0 10
vertex -2.97251 8.49495 10
vertex -3.90495 8.10872 10
endloop
endfacet
facet normal 0 0 1
outer loop
vertex 9 0 10
vertex -3.90495 8.10872 10
vertex -4.78829 7.62052 10
endloop
endfacet
facet normal 0 0 1
outer loop
vertex 9 0 10
vertex -4.78829 7.62052 10
vertex -5.61141 7.03648 10
endloop
endfacet
facet normal 0 0 1
outer loop
vertex 9 0 10
vertex -5.61141 7.03648 10
vertex -6.36396 6.36396 10
endloop
endfacet
facet normal 0 0 1
outer loop
vertex 9 0 10
vertex -6.36396 6.36396 10
vertex -7.03648 5.61141 10
endloop
endfacet
facet normal 0 0 1
outer loop
vertex 9 0 10
vertex -7.03648 5.61141 10
vertex -7.62052 4.78829 10
endloop
endfacet
facet normal 0 0 1
outer loop
vertex 9 0 10
vertex -7.62052 4.78829 10
vertex -8.10872 3.90495 10
endloop
endfacet
facet normal 0 0 1
outer loop
vertex 9 0 10
vertex -8.10872 3.90495 10
vertex -8.49495 2.97251 10
endloop
endfacet
facet normal 0 0 1
outer loop
vertex 9 0 10
vertex -8.49495 2.97251 10
vertex -8.77435 2.00269 10
endloop
endfacet
facet normal 0 0 1
outer loop
vertex 9 0 10
vertex -8.77435 2.00269 10
vertex -8.94341 1.00768 10
endloop
endfacet
facet normal 0 0 1
outer loop
vertex 9 0 10
vertex -8.94341 1.00768 10
vertex -9 0 10
endloop
endfacet
facet normal 0 0 1
outer loop
vertex 9 0 10
vertex -9 0 10
vertex -8.94341 -1.00768 10
endloop
endfacet
facet normal 0 0 1
outer loop
vertex 9 0 10
vertex -8.94341 -1.00768 10
vertex -8.77435 -2.00269 10
endloop
endfacet
facet normal 0 0 1
outer loop
vertex 9 0 10
vertex -8.77435 -2.00269 10
vertex -8.49495 -2.97251 10
endloop
endfacet
facet normal 0 0 1
outer loop
vertex 9 0 10
vertex -8.49495 -2.97251 10
vertex -8.10872 -3.90495 10
endloop
endfacet
facet normal 0 0 1
outer loop
vertex 9 0 10
vertex -8.10872 -3.90495 10
vertex -7.62052 -4.78829 10
endloop
endfacet
facet normal 0 0 1
outer loop
vertex 9 0 10
vertex -7.62052 -4.78829 10
vertex -7.03648 -5.61141 10
endloop
endfacet
facet normal 0 0 1
outer loop
vertex 9 0 10
vertex -7.03648 -5.61141 10
vertex -6.36396 -6.36396 10
endloop
endfacet
facet normal 0 0 1
outer loop
vertex 9 0 10
vertex -6.36396 -6.36396 10
vertex -5.61141 -7.03648 10
endloop
endfacet
facet normal 0 0 1
outer loop
vertex 9 0 10
vertex -5.61141 -7.03648 10
vertex -4.78829 -7.62052 10
endloop
endfacet
facet normal 0 0 1
outer loop
vertex 9 0 10
vertex -4.78829 -7.62052 10
vertex -3.90495 -8.10872 10
endloop
endfacet
facet normal 0 0 1
outer loop
vertex 9 0 10
vertex -3.90495 -8.10872 10
vertex -2.97251 -8.49495 10
endloop
endfacet
facet normal 0 0 1
outer loop
vertex 9 0 10
vertex -2.97251 -8.49495 10
vertex -2.00269 -8.77435 10
endloop
endfacet
facet normal 0 0 1
outer loop
vertex 9 0 10
vertex -2.00269 -8.77435 10
vertex -1.00768 -8.94341 10
endloop
endfacet
facet normal 0 0 1
outer loop
vertex 9 0 10
vertex -1.00768 -8.94341 10
vertex 0 -9 10
endloop
endfacet
facet normal 0 0 1
outer loop
vertex 9 0 10
vertex 0 -9 10
vertex 1.00768 -8.94341 10
endloop
endfacet
facet normal 0 0 1
outer loop
vertex 9 0 10
vertex 1.00768 -8.94341 10
vertex 2.00269 -8.77435 10
endloop
endfacet
facet normal 0 0 1
outer loop
vertex 9 0 10
vertex 2.00269 -8.77435 10
vertex 2.97251 -8.49495 10
endloop
endfacet
facet normal 0 0 1
outer loop
vertex 9 0 10
vertex 2.97251 -8.49495 10
vertex 3.90495 -8.10872 10
endloop
endfacet
facet normal 0 0 1
outer loop
vertex 9 0 10
vertex 3.90495 -8.10872 10
vertex 4.78829 -7.62052 10
endloop
endfacet
facet normal 0 0 1
outer loop
vertex 9 0 10
vertex 4.78829 -7.62052 10
vertex 5.61141 -7.03648 10
endloop
endfacet
facet normal 0 0 1
outer loop
vertex 9 0 10
vertex 5.61141 -7.03648 10
vertex 6.36396 -6.36396 10
endloop
endfacet
facet normal 0 0 1
outer loop
vertex 9 0 10
vertex 6.36396 -6.36396 10
vertex 7.03648 -5.61141 10
endloop
endfacet
facet normal 0 0 1
outer loop
vertex 9 0 10
vertex 7.03648 -5.61141 10
vertex 7.62052 -4.78829 10
endloop
endfacet
facet normal 0 0 1
outer loop
vertex 9 0 10
vertex 7.62052 -4.78829 10
vertex 8.10872 -3.90495 10
endloop
endfacet
facet normal 0 0 1
outer loop
vertex 9 0 10
vertex 8.10872 -3.90495 10
vertex 8.49495 -2.97251 10
endloop
endfacet
facet normal 0 0 1
outer loop
vertex 9 0 10
vertex 8.49495 -2.97251 10
vertex 8.77435 -2.00269 10
endloop
endfacet
facet normal 0 0 1
outer loop
vertex 9 0 10
vertex 8.77435 -2.00269 10
vertex 8.94341 -1.00768 10
endloop
endfacet
facet normal 0 0 -1
outer loop
vertex 8.94341 -1.00768 0
vertex 8.77435 -2.00269 0
vertex 8.49495 -2.97251 0
endloop
endfacet
facet normal 0 0 -1
outer loop
vertex 8.94341 -1.00768 0
vertex 8.49495 -2.97251 0
vertex 8.10872 -3.90495 0
endloop
endfacet
facet normal 0 0 -1
outer loop
vertex 8.94341 -1.00768 0
vertex 8.10872 -3.90495 0
vertex 7.62052 -4.78829 0
endloop
endfacet
facet normal 0 0 -1
outer loop
vertex 8.94341 -1.00768 0
vertex 7.62052 -4.78829 0
vertex 7.03648 -5.61141 0
endloop
endfacet
facet normal 0 0 -1
outer loop
vertex 8.94341 -1.00768 0
vertex 7.03648 -5.61141 0
vertex 6.36396 -6.36396 0
endloop
endfacet
facet normal 0 0 -1
outer loop
vertex 8.94341 -1.00768 0
vertex 6.36396 -6.36396 0
vertex 5.61141 -7.03648 0
endloop
endfacet
facet normal 0 0 -1
outer loop
vertex 8.94341 -1.00768 0
vertex 5.61141 -7.03648 0
vertex 4.78829 -7.62052 0
endloop
endfacet
facet normal 0 0 -1
outer loop
vertex 8.94341 -1.00768 0
vertex 4.78829 -7.62052 0
vertex 3.90495 -8.10872 0
endloop
endfacet
facet normal 0 0 -1
outer loop
vertex 8.94341 -1.00768 0
vertex 3.90495 -8.10872 0
vertex 2.97251 -8.49495 0
endloop
endfacet
facet normal 0 0 -1
outer loop
vertex 8.94341 -1.00768 0
vertex 2.97251 -8.49495 0
vertex 2.00269 -8.77435 0
endloop
endfacet
facet normal 0 0 -1
outer loop
vertex 8.94341 -1.00768 0
vertex 2.00269 -8.77435 0
vertex 1.00768 -8.94341 0
endloop
endfacet
facet normal 0 0 -1
outer loop
vertex 8.94341 -1.00768 0
vertex 1.00768 -8.94341 0
vertex 0 -9 0
endloop
endfacet
facet normal 0 0 -1
outer loop
vertex 8.94341 -1.00768 0
vertex 0 -9 0
vertex -1.00768 -8.94341 0
endloop
endfacet
facet normal 0 0 -1
outer loop
vertex 8.94341 -1.00768 0
vertex -1.00768 -8.94341 0
vertex -2.00269 -8.77435 0
endloop
endfacet
facet normal 0 0 -1
outer loop
vertex 8.94341 -1.00768 0
vertex -2.00269 -8.77435 0
vertex -2.97251 -8.49495 0
endloop
endfacet
facet normal 0 0 -1
outer loop
vertex 8.94341 -1.00768 0
vertex -2.97251 -8.49495 0
vertex -3.90495 -8.10872 0
endloop
endfacet
facet normal 0 0 -1
outer loop
vertex 8.94341 -1.00768 0
vertex -3.90495 -8.10872 0
vertex -4.78829 -7.62052 0
endloop
endfacet
facet normal 0 0 -1
outer loop
vertex 8.94341 -1.00768 0
vertex -4.78829 -7.62052 0
vertex -5.61141 -7.03648 0
endloop
endfacet
facet normal 0 0 -1
outer loop
vertex 8.94341 -1.00768 0
vertex -5.61141 -7.03648 0
vertex -6.36396 -6.36396 0
endloop
endfacet
facet normal 0 0 -1
outer loop
vertex 8.94341 -1.00768 0
vertex -6.36396 -6.36396 0
vertex -7.03648 -5.61141 0
endloop
endfacet
facet normal 0 0 -1
outer loop
vertex 8.94341 -1.00768 0
vertex -7.03648 -5.61141 0
vertex -7.62052 -4.78829 0
endloop
endfacet
facet normal 0 0 -1
outer loop
vertex 8.94341 -1.00768 0
vertex -7.62052 -4.78829 0
vertex -8.10872 -3.90495 0
endloop
endfacet
facet normal 0 0 -1
outer loop
vertex 8.94341 -1.00768 0
vertex -8.10872 -3.90495 0
vertex -8.49495 -2.97251 0
endloop
endfacet
facet normal 0 0 -1
outer loop
vertex 8.94341 -1.00768 0
vertex -8.49495 -2.97251 0
vertex -8.77435 -2.00269 0
endloop
endfacet
facet normal 0 0 -1
outer loop
vertex 8.94341 -1.00768 0
vertex -8.77435 -2.00269 0
vertex -8.94341 -1.00768 0
endloop
endfacet
facet normal 0 0 -1
outer loop
vertex 8.94341 -1.00768 0
vertex -8.94341 -1.00768 0
vertex -9 0 0
endloop
endfacet
facet normal 0 0 -1
outer loop
vertex 8.94341 -1.00768 0
vertex -9 0 0
vertex -8.94341 1.00768 0
endloop
endfacet
facet normal 0 0 -1
outer loop
vertex 8.94341 -1.00768 0
vertex -8.94341 1.00768 0
vertex -8.77435 2.00269 0
endloop
endfacet
facet normal 0 0 -1
outer loop
vertex 8.94341 -1.00768 0
vertex -8.77435 2.00269 0
vertex -8.49495 2.97251 0
endloop
endfacet
facet normal 0 0 -1
outer loop
vertex 8.94341 -1.00768 0
vertex -8.49495 2.97251 0
vertex -8.10872 3.90495 0
endloop
endfacet
facet normal 0 0 -1
outer loop
vertex 8.94341 -1.00768 0
vertex -8.10872 3.90495 0
vertex -7.62052 4.78829 0
endloop
endfacet
facet normal 0 0 -1
outer loop
vertex 8.94341 -1.00768 0
vertex -7.62052 4.78829 0
vertex -7.03648 5.61141 0
endloop
endfacet
facet normal 0 0 -1
outer loop
vertex 8.94341 -1.00768 0
vertex -7.03648 5.61141 0
vertex -6.36396 6.36396 0
endloop
endfacet
facet normal 0 0 -1
outer loop
vertex 8.94341 -1.00768 0
vertex -6.36396 6.36396 0
vertex -5.61141 7.03648 0
endloop
endfacet
facet normal 0 0 -1
outer loop
vertex 8.94341 -1.00768 0
vertex -5.61141 7.03648 0
vertex -4.78829 7.62052 0
endloop
endfacet
facet normal 0 0 -1
outer loop
vertex 8.94341 -1.00768 0
vertex -4.78829 7.62052 0
vertex -3.90495 8.10872 0
endloop
endfacet
facet normal 0 0 -1
outer loop
vertex 8.94341 -1.00768 0
vertex -3.90495 8.10872 0
vertex -2.97251 8.49495 0
endloop
endfacet
facet normal 0 0 -1
outer loop
vertex 8.94341 -1.00768 0
vertex -2.97251 8.49495 0
vertex -2.00269 8.77435 0
endloop
endfacet
facet normal 0 0 -1
outer loop
vertex 8.94341 -1.00768 0
vertex -2.00269 8.77435 0
vertex -1.00768 8.94341 0
endloop
endfacet
facet normal 0 0 -1
outer loop
vertex 8.94341 -1.00768 0
vertex -1.00768 8.94341 0
vertex 0 9 0
endloop
endfacet
facet normal 0 0 -1
outer loop
vertex 8.94341 -1.00768 0
vertex 0 9 0
vertex 1.00768 8.94341 0
endloop
endfacet
facet normal 0 0 -1
outer loop
vertex 8.94341 -1.00768 0
vertex 1.00768 8.94341 0
vertex 2.00269 8.77435 0
endloop
endfacet
facet normal 0 0 -1
outer loop
vertex 8.94341 -1.00768 0
vertex 2.00269 8.77435 0
vertex 2.97251 8.49495 0
endloop
endfacet
facet normal 0 0 -1
outer loop
vertex 8.94341 -1.00768 0
vertex 2.97251 8.49495 0
vertex 3.90495 8.10872 0
endloop
endfacet
facet normal 0 0 -1
outer loop
vertex 8.94341 -1.00768 0
vertex 3.90495 8.10872 0
vertex 4.78829 7.62052 0
endloop
endfacet
facet normal 0 0 -1
outer loop
vertex 8.94341 -1.00768 0
vertex 4.78829 7.62052 0
vertex 5.61141 7.03648 0
endloop
endfacet
facet normal 0 0 -1
outer loop
vertex 8.94341 -1.00768 0
vertex 5.61141 7.03648 0
vertex 6.36396 6.36396 0
endloop
endfacet
facet normal 0 0 -1
outer loop
vertex 8.94341 -1.00768 0
vertex 6.36396 6.36396 0
vertex 7.03648 5.61141 0
endloop
endfacet
facet normal 0 0 -1
outer loop
vertex 8.94341 -1.00768 0
vertex 7.03648 5.61141 0
vertex 7.62052 4.78829 0
endloop
endfacet
facet normal 0 0 -1
outer loop
vertex 8.94341 -1.00768 0
vertex 7.62052 4.78829 0
vertex 8.10872 3.90495 0
endloop
endfacet
facet normal 0 0 -1
outer loop
vertex 8.94341 -1.00768 0
vertex 8.10872 3.90495 0
vertex 8.49495 2.97251 0
endloop
endfacet
facet normal 0 0 -1
outer loop
vertex 8.94341 -1.00768 0
vertex 8.49495 2.97251 0
vertex 8.77435 2.00269 0
endloop
endfacet
facet normal 0 0 -1
outer loop
vertex 8.94341 -1.00768 0
vertex 8.77435 2.00269 0
vertex 8.94341 1.00768 0
endloop
endfacet
facet normal 0 0 -1
outer loop
vertex 8.94341 -1.00768 0
vertex 8.94341 1.00768 0
vertex 9 0 0
endloop
endfacet
endsolid JSxCAD
