<?xml version="1.0" encoding="UTF-8"?>
<!-- Generated by jsxcad -->
<!DOCTYPE svg PUBLIC "-//W3C//DTD SVG 1.1 Tiny//EN" "http://www.w3.org/Graphics/SVG/1.1/DTD/svg11-tiny.dtd">
<svg baseProfile="tiny" height="18 mm" width="18 mm" viewBox="0 0 18 18" version="1.1" stroke="black" stroke-width=".1" fill="none" xmlns="http://www.w3.org/2000/svg">
<path d="M8.49616 0.0283 L9 0 L9.50384 0.0283 L10.00768 0.05659 L10.50518 0.14112 L11.00269 0.22565 L11.4876 0.36535 L11.97251 0.50505 L12.43873 0.69817 L12.90495 0.89128 L13.34662 1.13538 L13.78829 1.37948 L14.19985 1.6715 L14.61141 1.96352 L14.98768 2.29978 L15.36396 2.63604 L15.70022 3.01232 L16.03648 3.38859 L16.3285 3.80015 L16.62052 4.21171 L16.86462 4.65338 L17.10872 5.09505 L17.30183 5.56127 L17.49495 6.02749 L17.63465 6.5124 L17.77435 6.99731 L17.85888 7.49482 L17.94341 7.99232 L17.9717 8.49616 L18 9 L17.9717 9.50384 L17.94341 10.00768 L17.85888 10.50518 L17.77435 11.00269 L17.63465 11.4876 L17.49495 11.97251 L17.30183 12.43873 L17.10872 12.90495 L16.86462 13.34662 L16.62052 13.78829 L16.3285 14.19985 L16.03648 14.61141 L15.70022 14.98768 L15.36396 15.36396 L14.98768 15.70022 L14.61141 16.03648 L14.19985 16.3285 L13.78829 16.62052 L13.34662 16.86462 L12.90495 17.10872 L12.43873 17.30183 L11.97251 17.49495 L11.4876 17.63465 L11.00269 17.77435 L10.50518 17.85888 L10.00768 17.94341 L9.50384 17.9717 L9 18 L8.49616 17.9717 L7.99232 17.94341 L7.49482 17.85888 L6.99731 17.77435 L6.5124 17.63465 L6.02749 17.49495 L5.56127 17.30183 L5.09505 17.10872 L4.65338 16.86462 L4.21171 16.62052 L3.80015 16.3285 L3.38859 16.03648 L3.01232 15.70022 L2.63604 15.36396 L2.29978 14.98768 L1.96352 14.61141 L1.6715 14.19985 L1.37948 13.78829 L1.13538 13.34662 L0.89128 12.90495 L0.69817 12.43873 L0.50505 11.97251 L0.36535 11.4876 L0.22565 11.00269 L0.14112 10.50518 L0.05659 10.00768 L0.0283 9.50384 L0 9 L0.0283 8.49616 L0.05659 7.99232 L0.14112 7.49482 L0.22565 6.99731 L0.36535 6.5124 L0.50505 6.02749 L0.69817 5.56127 L0.89128 5.09505 L1.13538 4.65338 L1.37948 4.21171 L1.6715 3.80015 L1.96352 3.38859 L2.29978 3.01232 L2.63604 2.63604 L3.01232 2.29978 L3.38859 1.96352 L3.80015 1.6715 L4.21171 1.37948 L4.65338 1.13538 L5.09505 0.89128 L5.56127 0.69817 L6.02749 0.50505 L6.5124 0.36535 L6.99731 0.22565 L7.49482 0.14112 L7.99232 0.05659 z"/>
</svg>